<svg width="36" height="36" viewBox="0 0 36 36" fill="none" xmlns="http://www.w3.org/2000/svg">
    <path fill-rule="evenodd" clip-rule="evenodd"
        d="M18.8187 30.3367C20.0383 30.2539 21.2475 30.0622 22.4309 29.7641C23.8913 30.1969 25.4351 30.2949 26.9411 30.0504C27.0009 30.0429 27.061 30.0384 27.1213 30.0369C27.6587 30.0369 28.3641 30.3401 29.392 30.9801V29.9275C29.3922 29.7454 29.4422 29.5666 29.537 29.4094C29.6317 29.2523 29.7677 29.1224 29.9311 29.0332C30.3794 28.7861 30.7937 28.506 31.1739 28.1927C32.6715 26.9599 33.5173 25.3161 33.5173 23.5747C33.515 22.9885 33.4232 22.4238 33.2417 21.8803C33.6959 21.0585 34.0581 20.1995 34.3285 19.3035C35.1963 20.5688 35.6616 22.0542 35.6667 23.5747C35.6667 25.941 34.5331 28.1473 32.5727 29.7607C32.245 30.0293 31.9006 30.2779 31.5413 30.5052V32.9658C31.5413 33.8129 30.536 34.2997 29.8271 33.7961C29.1567 33.3091 28.4626 32.8538 27.7471 32.4319C27.5421 32.3128 27.329 32.2076 27.1092 32.1169C26.5187 32.2034 25.9184 32.2466 25.3083 32.2466C22.8608 32.2466 20.5988 31.5342 18.8187 30.3367ZM5.8776 25.4155C2.78533 22.8673 1 19.3961 1 15.6757C1 8.07492 8.38053 2 17.3921 2C26.4037 2 33.786 8.07492 33.786 15.6757C33.786 23.2782 26.4037 29.3532 17.3921 29.3532C16.3776 29.3532 15.3792 29.2774 14.3969 29.1258C13.9723 29.2235 12.2753 30.2037 9.8296 31.9384C8.94387 32.5683 7.6872 31.9603 7.6872 30.9009V26.7039C7.05296 26.3172 6.4482 25.8866 5.8776 25.4155ZM14.4559 26.5372C14.531 26.5372 14.6061 26.5428 14.6812 26.554C15.5652 26.6989 16.4735 26.773 17.3921 26.773C25.0049 26.773 31.0976 21.7574 31.0976 15.6757C31.0976 9.59576 25.0049 4.5802 17.3921 4.5802C9.7828 4.5802 3.68667 9.59576 3.68667 15.6757C3.68667 18.6164 5.10973 21.3852 7.62653 23.4568C8.26209 23.9777 8.95311 24.4448 9.6996 24.858C10.1173 25.0871 10.3756 25.5149 10.3756 25.9763V28.3965C12.31 27.1351 13.5823 26.5372 14.4559 26.5372ZM10.4051 18.2576C9.21773 18.2576 8.25573 17.3313 8.25573 16.1928C8.25573 15.0526 9.21773 14.128 10.4051 14.128C11.5924 14.128 12.5544 15.0526 12.5544 16.1928C12.5544 17.333 11.5924 18.2576 10.4051 18.2576ZM17.3921 18.2576C16.2048 18.2576 15.2428 17.3313 15.2428 16.1928C15.2428 15.0526 16.2048 14.128 17.3921 14.128C18.5795 14.128 19.5415 15.0526 19.5415 16.1928C19.5415 17.333 18.5795 18.2576 17.3921 18.2576ZM24.3792 18.2576C23.1919 18.2576 22.2299 17.3313 22.2299 16.1928C22.2299 15.0526 23.1919 14.128 24.3792 14.128C25.5665 14.128 26.5285 15.0526 26.5285 16.1928C26.5285 17.333 25.5665 18.2576 24.3792 18.2576Z"
        fill="currentColor" />
</svg>