<svg width="28" height="28" viewBox="0 0 28 28" fill="none" xmlns="http://www.w3.org/2000/svg">
    <path
        d="M3.4606 13.5116C9.33374 11.0421 13.2492 9.41409 15.2069 8.6274C20.803 6.38128 21.9644 5.99118 22.723 5.97796C22.8898 5.97538 23.2612 6.01518 23.5035 6.20431C23.705 6.36381 23.7616 6.57952 23.7899 6.73097C23.8151 6.88228 23.8498 7.22711 23.8214 7.49629C23.5193 10.5709 22.2068 18.0321 21.5395 21.4758C21.2594 22.9329 20.7023 23.4215 20.1641 23.4692C18.9932 23.5731 18.1057 22.723 16.9726 22.0063C15.2006 20.8843 14.1997 20.1861 12.478 19.0915C10.4888 17.8264 11.7793 17.1309 12.9124 15.9947C13.2082 15.6972 18.3638 11.1719 18.4613 10.7614C18.4739 10.7101 18.4865 10.5187 18.3669 10.4178C18.2504 10.3166 18.0773 10.3513 17.9514 10.3786C17.772 10.4175 14.9425 12.2246 9.45334 15.7996C8.65074 16.3325 7.92368 16.5923 7.26901 16.5786C6.5514 16.5637 5.16652 16.1861 4.13731 15.8634C2.87833 15.4675 1.87429 15.2582 1.96242 14.5859C2.00649 14.2359 2.50693 13.8777 3.4606 13.5116Z"
        fill="currentColor" />
</svg>