<svg width="24" height="24" viewBox="0 0 24 24" fill="none" xmlns="http://www.w3.org/2000/svg">
    <path
        d="M3.9082 2.15909C3.35592 2.15909 2.90664 2.60895 2.92133 3.16104C3.22332 14.5082 8.74087 20.0258 20.0881 20.3278C20.6402 20.3425 21.09 19.8932 21.09 19.3409V15.277C21.09 14.8305 20.794 14.4382 20.3647 14.3155L16.701 13.2687C16.2828 13.1492 15.8354 13.3137 15.5942 13.6755L14.8414 14.8047C14.656 15.0829 14.3423 15.2582 14.0113 15.2113C11.3899 14.8395 8.40956 11.8592 8.03783 9.23783C7.99088 8.90679 8.16621 8.59314 8.44441 8.40768L9.57357 7.65491C9.9354 7.41368 10.0999 6.96627 9.9804 6.54813L8.93361 2.88437C8.81095 2.45507 8.41856 2.15909 7.97208 2.15909H3.9082Z"
        fill="currentColor" />
    <path
        d="M14.25 2.19324C14.25 1.81037 14.561 1.49668 14.9423 1.53202C15.6898 1.60131 16.4241 1.7826 17.1201 2.0709C18.0301 2.44781 18.8569 3.00026 19.5533 3.6967C20.2497 4.39314 20.8022 5.21993 21.1791 6.12988C21.4674 6.82591 21.6487 7.56017 21.718 8.30774C21.7533 8.68897 21.4396 9 21.0568 9C20.6739 9 20.3676 8.68865 20.3243 8.30824C20.2599 7.74292 20.1168 7.18821 19.8982 6.66046C19.5909 5.91873 19.1406 5.24478 18.5729 4.67709C18.0052 4.1094 17.3313 3.65908 16.5895 3.35185C16.0618 3.13324 15.5071 2.99013 14.9418 2.92575C14.5614 2.88242 14.25 2.57611 14.25 2.19324Z"
        fill="currentColor" />
    <path
        d="M14.25 5.81437C14.25 5.50268 14.5041 5.24566 14.8122 5.29239C15.1113 5.33773 15.4044 5.41919 15.6851 5.53545C16.14 5.72391 16.5534 6.00013 16.9017 6.34835C17.2499 6.69657 17.5261 7.10997 17.7145 7.56494C17.8308 7.84562 17.9123 8.13874 17.9576 8.43775C18.0043 8.74592 17.7473 9 17.4356 9C17.1239 9 16.8773 8.74447 16.8107 8.43998C16.7777 8.28882 16.7312 8.14052 16.6717 7.99689C16.54 7.67886 16.3469 7.3899 16.1035 7.14649C15.8601 6.90308 15.5711 6.71 15.2531 6.57827C15.1095 6.51878 14.9612 6.47232 14.81 6.43926C14.5055 6.37267 14.25 6.12606 14.25 5.81437Z"
        fill="currentColor" />
</svg>