<svg width="67" height="24" viewBox="0 0 67 24" fill="none" xmlns="http://www.w3.org/2000/svg">
    <g clip-path="url(#clip0_1109_8393)">
        <path d="M0 0.192872L7.16996 0.192871V3.27134H3.07284V7.37597H0V0.192872Z" fill="#E41F1A" />
        <path d="M16.3887 0.192872V7.37597H13.3158V3.27134H9.21875V0.192871L16.3887 0.192872Z"
            fill="#E41F1A" />
        <path d="M2.27908e-07 16.6113L0 9.42822H3.07284V13.5329H7.16996V16.6113H2.27908e-07Z"
            fill="#E41F1A" />
        <path d="M16.3887 16.6113H9.21875V13.5329H13.3158V9.42822H16.3887V16.6113Z" fill="#E41F1A" />
        <path
            d="M45.1212 2.51985C45.1212 2.82715 44.993 3.07297 44.8007 3.19589C44.6084 3.38027 44.2879 3.44174 43.9032 3.44174H42.8776V1.53649H43.9032C44.2879 1.53649 44.6084 1.59795 44.8007 1.78233C45.0571 2.02817 45.1212 2.27401 45.1212 2.51985ZM45.1853 6.63763H47.2366L45.7622 4.60948C46.2109 4.4251 46.5315 4.11779 46.7238 3.81049C46.9802 3.44173 47.0443 3.07297 47.0443 2.5813C47.0443 2.08962 46.9161 1.65942 46.6597 1.29066C46.4033 0.921898 46.0828 0.676046 45.634 0.430207C45.1853 0.245828 44.6725 0.122908 44.0314 0.122908H41.0185V6.57619H42.9416V4.8553H43.9673L45.1853 6.63763ZM36.2748 5.22408C35.9543 5.22408 35.6338 5.16264 35.3774 4.97822C35.121 4.8553 34.8645 4.60948 34.7363 4.30218C34.544 3.99488 34.4799 3.68758 34.4799 3.31882C34.4799 2.95006 34.544 2.64276 34.7363 2.33546C34.8645 2.02816 35.121 1.84378 35.3774 1.6594C35.6338 1.53648 35.9543 1.41357 36.2748 1.41357C36.5953 1.41357 36.9158 1.47502 37.1723 1.6594C37.4287 1.78232 37.6851 2.02816 37.8133 2.33546C37.9415 2.64276 38.0697 2.95006 38.0697 3.31882C38.0697 3.68758 38.0057 3.99488 37.8133 4.30218C37.621 4.60948 37.4287 4.79386 37.1723 4.97822C36.9158 5.16264 36.5953 5.22408 36.2748 5.22408ZM36.2748 6.76056C36.98 6.76056 37.621 6.63763 38.1979 6.33034C38.7749 6.02304 39.2236 5.6543 39.5441 5.16259C39.8647 4.67093 40.0569 4.05634 40.0569 3.44174C40.0569 2.82715 39.8647 2.21254 39.5441 1.72086C39.2236 1.22918 38.7749 0.798974 38.1979 0.553133C37.621 0.245835 36.98 0.122908 36.2748 0.122908C35.5697 0.122908 34.9286 0.245835 34.3517 0.553133C33.7747 0.860434 33.326 1.22918 33.0055 1.72086C32.685 2.21254 32.4927 2.82715 32.4927 3.44174C32.4927 4.05634 32.685 4.67093 33.0055 5.16259C33.326 5.6543 33.7747 6.08448 34.3517 6.33034C34.9286 6.57619 35.5697 6.76056 36.2748 6.76056ZM29.9926 5.03966C29.6721 5.16259 29.3515 5.22408 28.967 5.22408C28.5823 5.22408 28.2618 5.16264 28.0054 4.97822C27.749 4.79386 27.4925 4.60948 27.3643 4.30218C27.2361 3.99488 27.1079 3.68758 27.1079 3.31882C27.1079 2.76568 27.3002 2.33546 27.6207 1.9667C27.9413 1.6594 28.4541 1.47503 29.031 1.47503C29.6721 1.47503 30.1849 1.72088 30.6336 2.21255L31.8517 1.16773C31.5311 0.798974 31.0824 0.491678 30.5696 0.307298C30.0567 0.122919 29.4798 0 28.9028 0C28.1977 0 27.5567 0.122908 26.9797 0.430207C26.4028 0.737506 25.954 1.10628 25.6335 1.59795C25.313 2.08963 25.1207 2.70422 25.1207 3.31882C25.1207 3.99488 25.2489 4.548 25.6335 5.03966C25.954 5.53138 26.4028 5.9616 26.9797 6.20746C27.5567 6.45326 28.1977 6.63763 28.9028 6.63763C29.4157 6.63763 29.9285 6.57619 30.3772 6.45326C30.8901 6.33034 31.3388 6.08453 31.7234 5.83867V3.19589H30.0567V5.03966H29.9926ZM22.1719 6.63763H24.095V0.184371H22.1719V6.63763Z"
            fill="currentColor" />
        <path
            d="M65.1524 10.18V13.6217L62.2236 10.18H60.6955V16.6333H62.5418V13.1915L65.4712 16.6333H66.9992V10.18H65.1524ZM57.3842 16.6333H59.2947V10.18H57.3842V16.6333ZM54.519 15.0353C54.2003 15.1582 53.8821 15.2197 53.5002 15.2197C53.1183 15.2197 52.7995 15.1582 52.5449 14.9739C52.2903 14.7895 52.0357 14.6051 51.9084 14.2978C51.7807 13.9905 51.6534 13.6832 51.6534 13.3144C51.6534 12.7613 51.8443 12.3311 52.163 11.9623C52.5449 11.655 52.9905 11.4706 53.5638 11.4706C54.2003 11.4706 54.71 11.7165 55.1555 12.2082L56.3654 11.1633C56.0471 10.7946 55.6016 10.4873 55.0919 10.3029C54.5827 10.1185 54.0094 9.99561 53.4365 9.99561C52.7359 9.99561 52.0994 10.1185 51.5261 10.4258C50.9532 10.7331 50.5072 11.1019 50.1889 11.5936C49.8707 12.0852 49.6797 12.6998 49.6797 13.3144C49.6797 13.9291 49.807 14.5436 50.1889 15.0353C50.5072 15.527 50.9532 15.9572 51.5261 16.2031C52.0994 16.5104 52.7359 16.6333 53.4365 16.6333C53.9457 16.6333 54.4554 16.5718 54.9009 16.4489C55.4101 16.326 55.8562 16.0801 56.2381 15.8343V13.1301H54.5827V15.0353H54.519ZM44.8403 13.9905L45.7317 11.9009L46.6231 13.9905H44.8403ZM47.642 16.6333H49.6161L46.6231 10.18H44.7766L41.8475 16.6333H43.7578L44.2672 15.4041H47.0689L47.642 16.6333ZM36.7535 16.6333H41.8475V15.1582H38.6638V10.18H36.7535V16.6333ZM32.2962 16.7562C33.315 16.7562 34.0792 16.5104 34.5886 15.9572C35.1616 15.4041 35.4163 14.6666 35.4163 13.7446V10.18H33.5698V13.6832C33.5698 14.728 33.124 15.2197 32.2962 15.2197C31.4685 15.2197 31.0227 14.728 31.0227 13.6832V10.18H29.1125V13.7446C29.1125 14.728 29.3672 15.4655 29.9402 15.9572C30.5133 16.4489 31.3411 16.7562 32.2962 16.7562ZM26.6291 16.6333H28.8578L25.9924 13.0071L28.7304 10.18H26.6291L24.0185 12.8842V10.18H22.1719V16.6333H24.0185V15.0353L24.7189 14.2978L26.6291 16.6333Z"
            fill="currentColor" />
        <path
            d="M47.8659 23.4149C47.6751 23.4149 47.4843 23.3499 47.2935 23.2849C47.1027 23.1548 46.9756 23.0249 46.912 22.8948C46.7848 22.6999 46.7848 22.5048 46.7848 22.3098C46.7848 22.1148 46.8484 21.9198 46.912 21.7247C47.0391 21.5297 47.1663 21.3997 47.2935 21.3347C47.4843 21.2047 47.6751 21.2047 47.8659 21.2047C48.0569 21.2047 48.2474 21.2697 48.4383 21.3347C48.6293 21.4647 48.7561 21.5947 48.8197 21.7247C48.947 21.9198 48.947 22.1148 48.947 22.3098C48.947 22.5048 48.8834 22.6999 48.8197 22.8948C48.6929 23.0899 48.5656 23.2198 48.4383 23.2849C48.311 23.4149 48.1205 23.4149 47.8659 23.4149ZM47.8659 23.9999C48.1837 23.9999 48.502 23.9349 48.7561 23.8049C49.0107 23.6749 49.2016 23.4799 49.3921 23.2199C49.5194 22.9599 49.6467 22.6998 49.6467 22.3748C49.6467 22.0497 49.5831 21.7897 49.3921 21.5297C49.2653 21.2697 49.0107 21.0747 48.7561 20.9447C48.502 20.8147 48.1837 20.7497 47.8659 20.7497C47.5479 20.7497 47.2299 20.8147 46.9756 20.9447C46.7212 21.0747 46.5303 21.2697 46.3395 21.5297C46.2123 21.7897 46.0852 22.0497 46.0852 22.3748C46.0852 22.6998 46.1487 22.9599 46.3395 23.2199C46.4667 23.4799 46.7212 23.6749 46.9756 23.8049C47.2935 23.8699 47.5479 23.9999 47.8659 23.9999ZM43.0324 23.9349H43.6048V20.6196H43.0324V23.9349ZM37.9444 23.4149V21.1397H38.7077C38.9621 21.1397 39.1528 21.2047 39.3436 21.2697C39.5344 21.3347 39.6616 21.4647 39.7253 21.6597C39.8525 21.8548 39.8525 22.0498 39.8525 22.2448C39.8525 22.4398 39.7889 22.6998 39.7253 22.8298C39.598 23.0249 39.4708 23.1549 39.3436 23.2199C39.1528 23.2849 38.9621 23.3499 38.7077 23.3499H37.9444V23.4149ZM37.3085 23.9349H38.7077C39.0257 23.9349 39.3436 23.8699 39.598 23.7399C39.8525 23.6099 40.0432 23.4149 40.234 23.1548C40.3612 22.8948 40.4248 22.6348 40.4248 22.3098C40.4248 21.9847 40.3612 21.7247 40.234 21.4647C40.1068 21.2047 39.8525 21.0097 39.598 20.8797C39.3436 20.7497 39.0257 20.6846 38.7077 20.6846H37.3085V23.9349ZM33.1745 23.9999C33.6197 23.9999 33.9377 23.8699 34.1921 23.6099C34.4465 23.3499 34.5737 22.9599 34.5737 22.5048V20.6196H34.0013V22.4398C34.0013 23.0899 33.7469 23.4149 33.1745 23.4149C32.6021 23.4149 32.3477 23.0899 32.3477 22.4398V20.6196H31.7754V22.5048C31.7754 22.9599 31.9026 23.3499 32.157 23.6099C32.4113 23.8699 32.7294 23.9999 33.1745 23.9999ZM27.8322 23.9349H28.4046V21.1397H29.4858V20.6196H26.751V21.1397H27.8322V23.9349ZM23.4439 23.9999C23.6983 23.9999 23.9527 23.9349 24.1434 23.8699C24.3343 23.8049 24.4615 23.6749 24.5887 23.5449C24.7159 23.4149 24.7159 23.2199 24.7159 23.0249C24.7159 22.8298 24.6523 22.6348 24.5251 22.5048C24.3979 22.3748 24.2707 22.3098 24.1434 22.2448C24.0163 22.1798 23.8255 22.1148 23.5711 22.0497C23.3803 21.9847 23.2531 21.9848 23.1895 21.9198C23.0623 21.8548 22.9987 21.8548 22.9351 21.7897C22.8715 21.7247 22.8079 21.6597 22.8079 21.5297C22.8079 21.3997 22.8715 21.2697 22.9987 21.2047C23.1259 21.1397 23.3167 21.0747 23.5075 21.0747C23.6347 21.0747 23.8255 21.0747 23.9526 21.1397C24.0798 21.2047 24.2707 21.2697 24.3979 21.3347L24.5887 20.8797C24.4615 20.8147 24.2707 20.6846 24.0798 20.6846C23.8891 20.6196 23.6983 20.6196 23.5075 20.6196C23.2531 20.6196 22.9987 20.6846 22.8079 20.7497C22.6171 20.8147 22.4899 20.9447 22.3627 21.0747C22.2991 21.2047 22.2355 21.3997 22.2355 21.5947C22.2355 21.7898 22.2991 21.9847 22.4263 22.1148C22.5535 22.2448 22.6807 22.3098 22.8079 22.3748C22.9351 22.4398 23.1259 22.5048 23.3803 22.5698C23.5711 22.6348 23.6983 22.6348 23.7619 22.6998C23.8891 22.7648 23.9527 22.7648 24.0162 22.8298C24.0798 22.8948 24.1434 22.9599 24.1434 23.0899C24.1434 23.2199 24.0798 23.3499 23.9526 23.4149C23.8255 23.4799 23.6347 23.5449 23.4439 23.5449C23.2531 23.5449 23.0623 23.4799 22.8715 23.4149C22.6807 23.3499 22.4899 23.2849 22.3627 23.1548L22.1719 23.6099C22.2991 23.7399 22.4899 23.8049 22.7443 23.8699C22.9987 23.9349 23.1895 23.9999 23.4439 23.9999Z"
            fill="currentColor" />
    </g>
</svg>