<svg width="158" height="193" viewBox="0 0 158 193" fill="none" xmlns="http://www.w3.org/2000/svg">
<path d="M78.625 192.25C62.2917 192.25 48.25 188.375 36.5 180.625C24.75 172.792 15.7083 161.708 9.375 147.375C3.125 133.042 0 116 0 96.25C0 76.4167 3.125 59.3333 9.375 45C15.7083 30.5833 24.75 19.5 36.5 11.75C48.25 3.91667 62.2917 0 78.625 0C95.0417 0 109.125 3.91667 120.875 11.75C132.625 19.5 141.625 30.5833 147.875 45C154.125 59.3333 157.25 76.4167 157.25 96.25C157.25 116 154.125 133.083 147.875 147.5C141.625 161.833 132.625 172.875 120.875 180.625C109.125 188.375 95.0417 192.25 78.625 192.25ZM78.625 157C86.2083 157 92.7083 154.583 98.125 149.75C103.542 144.833 107.708 137.833 110.625 128.75C113.542 119.667 115 108.833 115 96.25C115 83.5833 113.542 72.7083 110.625 63.625C107.708 54.5417 103.5 47.5417 98 42.625C92.5833 37.7083 86.125 35.25 78.625 35.25C71.2083 35.25 64.75 37.7083 59.25 42.625C53.8333 47.5417 49.6667 54.5417 46.75 63.625C43.8333 72.7083 42.375 83.5833 42.375 96.25C42.375 108.833 43.8333 119.667 46.75 128.75C49.6667 137.833 53.8333 144.833 59.25 149.75C64.75 154.583 71.2083 157 78.625 157Z" fill="#C6A47D"/>
</svg>
