<svg width="111" height="111" viewBox="0 0 111 111" xmlns="http://www.w3.org/2000/svg">
    <path
        d="M13.96 36H8.84V53.04C8.84 54.4533 8.66667 55.6133 8.32 56.52C7.97333 57.4267 7.50667 58.1467 6.92 58.68C6.33333 59.1867 5.65333 59.5467 4.88 59.76C4.13333 59.9733 3.34667 60.08 2.52 60.08C2.12 60.08 1.76 60.08 1.44 60.08C1.12 60.08 0.773333 60.0533 0.4 60V56C0.64 56.0267 0.893333 56.04 1.16 56.04C1.42667 56.04 1.68 56.04 1.92 56.04C2.61333 56.04 3.2 55.8667 3.68 55.52C4.18667 55.1733 4.44 54.4533 4.44 53.36V32H18.36V60H13.96V36ZM24.9609 43.8H31.0009V47.8H24.9609V56H32.5609V60H20.5609V32H32.5609V36H24.9609V43.8ZM38.5703 42.52H40.6503C42.8636 42.52 44.5036 43.1067 45.5703 44.28C46.6636 45.4533 47.2103 47.1733 47.2103 49.44V53.08C47.2103 55.3467 46.6636 57.0667 45.5703 58.24C44.5036 59.4133 42.8636 60 40.6503 60H34.1703V32H45.8103V36H38.5703V42.52ZM40.6503 56C41.3436 56 41.877 55.8133 42.2503 55.44C42.6236 55.0667 42.8103 54.3733 42.8103 53.36V49.16C42.8103 48.1467 42.6236 47.4533 42.2503 47.08C41.877 46.7067 41.3436 46.52 40.6503 46.52H38.5703V56H40.6503ZM53.1953 43.8H59.2353V47.8H53.1953V56H60.7953V60H48.7953V32H60.7953V36H53.1953V43.8ZM60.8047 56C61.0447 56.0267 61.298 56.04 61.5647 56.04C61.8314 56.04 62.0847 56.04 62.3247 56.04C63.018 56.04 63.6047 55.8667 64.0847 55.52C64.5914 55.1733 64.8447 54.4533 64.8447 53.36V32H78.7647V56H81.0047V63.2H76.5247V60H65.2847V63.2H60.8047V56ZM69.2447 53.04C69.2447 54.2133 69.1247 55.2 68.8847 56H74.3647V36H69.2447V53.04ZM86.1953 43.8H92.2353V47.8H86.1953V56H93.7953V60H81.7953V32H93.7953V36H86.1953V43.8ZM102.045 32C104.338 32 105.991 32.5333 107.005 33.6C108.045 34.6667 108.565 36.28 108.565 38.44V39.44C108.565 40.88 108.338 42.0667 107.885 43C107.431 43.9333 106.711 44.6267 105.725 45.08C106.925 45.5333 107.765 46.28 108.245 47.32C108.751 48.3333 109.005 49.5867 109.005 51.08V53.36C109.005 55.52 108.445 57.1733 107.325 58.32C106.205 59.44 104.538 60 102.325 60H95.4047V32H102.045ZM99.8047 47.4V56H102.325C103.071 56 103.631 55.8 104.005 55.4C104.405 55 104.605 54.28 104.605 53.24V50.8C104.605 49.4933 104.378 48.6 103.925 48.12C103.498 47.64 102.778 47.4 101.765 47.4H99.8047ZM99.8047 36V43.4H101.525C102.351 43.4 102.991 43.1867 103.445 42.76C103.925 42.3333 104.165 41.56 104.165 40.44V38.88C104.165 37.8667 103.978 37.1333 103.605 36.68C103.258 36.2267 102.698 36 101.925 36H99.8047Z"
        fill="currentColor" />
    <g clip-path="url(#clip0_9768_8042)">
        <rect width="111" height="16" transform="translate(0 65)" fill="#0C374B" />
        <path
            d="M13.1592 77H11.2549L11.2549 71.8291H11.1816L7.65869 77H5.99609L5.99609 68.8335H7.90039L7.90039 74.0044H7.96631L11.4819 68.8335H13.1592V77ZM28.9839 68.8335L28.9839 77H27.0796L27.0796 70.4082H23.8423L23.8423 77H21.9307L21.9307 68.8335H28.9839ZM34.7832 77.1685C34.2607 77.1685 33.792 77.0757 33.377 76.8901C32.9619 76.6997 32.6348 76.4214 32.3955 76.0552C32.1562 75.689 32.0366 75.2373 32.0366 74.7002C32.0366 74.2412 32.1221 73.8628 32.293 73.5649C32.4688 73.2622 32.7031 73.0205 32.9961 72.8398C33.2939 72.6592 33.6284 72.5225 33.9995 72.4297C34.3706 72.3369 34.7563 72.271 35.1567 72.2319C35.6304 72.1782 36.0137 72.1318 36.3066 72.0928C36.6045 72.0537 36.8218 71.9902 36.9585 71.9023C37.1001 71.8145 37.1709 71.6777 37.1709 71.4922V71.4556C37.1709 71.187 37.1172 70.96 37.0098 70.7744C36.9023 70.5889 36.7412 70.4473 36.5264 70.3496C36.3164 70.2471 36.0552 70.1958 35.7427 70.1958C35.4302 70.1958 35.1567 70.2446 34.9224 70.3423C34.6929 70.4399 34.5049 70.5669 34.3584 70.7231C34.2119 70.8794 34.1045 71.0503 34.0361 71.2358L32.271 70.8916C32.4272 70.4082 32.6714 70.0078 33.0034 69.6904C33.3403 69.3682 33.7432 69.1289 34.2119 68.9727C34.6807 68.8115 35.1909 68.731 35.7427 68.731C36.1333 68.731 36.5239 68.7773 36.9146 68.8701C37.3101 68.9629 37.6689 69.1167 37.9912 69.3315C38.3184 69.5464 38.5796 69.8345 38.7749 70.1958C38.9751 70.5522 39.0752 70.999 39.0752 71.5361V77H37.2515V75.8721H37.1782C37.061 76.1064 36.895 76.3213 36.6802 76.5166C36.4653 76.7119 36.2017 76.8706 35.8892 76.9927C35.5767 77.1099 35.208 77.1685 34.7832 77.1685ZM35.2666 75.7549C35.6621 75.7549 36.0015 75.6792 36.2847 75.5278C36.5728 75.3716 36.7949 75.1641 36.9512 74.9053C37.1074 74.6465 37.1855 74.3657 37.1855 74.063V73.1035C37.1221 73.1523 37.0171 73.1987 36.8706 73.2427C36.729 73.2866 36.5654 73.3257 36.3799 73.3599C36.1992 73.394 36.0186 73.4233 35.8379 73.4478C35.6621 73.4722 35.5107 73.4917 35.3838 73.5063C35.1006 73.5454 34.8442 73.6113 34.6147 73.7041C34.3901 73.792 34.2119 73.9141 34.0801 74.0703C33.9482 74.2266 33.8823 74.4316 33.8823 74.6855C33.8823 74.915 33.9409 75.1104 34.0581 75.2715C34.1802 75.4326 34.3438 75.5547 34.5488 75.6377C34.7588 75.7158 34.998 75.7549 35.2666 75.7549ZM42.5674 80.0615V68.8335H44.4351V70.1738H44.5449C44.6475 69.9785 44.7891 69.7686 44.9697 69.5439C45.1553 69.3193 45.4019 69.1289 45.7095 68.9727C46.022 68.8115 46.4175 68.731 46.896 68.731C47.5308 68.731 48.0996 68.8921 48.6025 69.2144C49.1104 69.5366 49.5132 70.0127 49.811 70.6426C50.1138 71.2676 50.2651 72.0317 50.2651 72.9351C50.2651 73.8237 50.1187 74.583 49.8257 75.2129C49.5327 75.8379 49.1323 76.3164 48.6245 76.6484C48.1167 76.9805 47.5381 77.1465 46.8887 77.1465C46.4248 77.1465 46.0391 77.0684 45.7314 76.9121C45.4238 76.7559 45.1748 76.5679 44.9844 76.3481C44.7988 76.1284 44.6548 75.916 44.5522 75.7109H44.4717V80.0615H42.5674ZM46.376 75.5864C46.8008 75.5864 47.1572 75.4717 47.4453 75.2422C47.7334 75.0127 47.9507 74.6978 48.0972 74.2974C48.2437 73.8921 48.3169 73.4355 48.3169 72.9277C48.3169 72.415 48.2437 71.9609 48.0972 71.5654C47.9507 71.1699 47.7334 70.8599 47.4453 70.6353C47.1572 70.4106 46.8008 70.2983 46.376 70.2983C45.9561 70.2983 45.6021 70.4082 45.314 70.6279C45.0259 70.8428 44.8062 71.1479 44.6548 71.5435C44.5083 71.9341 44.4351 72.3955 44.4351 72.9277C44.4351 73.4551 44.5083 73.9189 44.6548 74.3193C44.8062 74.7148 45.0283 75.0249 45.3213 75.2495C45.6143 75.4741 45.9658 75.5864 46.376 75.5864ZM55.1709 77V70.3862L52.5488 70.3862V68.8335H59.6826V70.3862H57.0679V77H55.1709ZM68.2432 72.1294V73.7041H63.8633V72.1294H68.2432ZM64.376 68.8335V77H62.4717V68.8335H64.376ZM69.6348 68.8335V77H67.7305V68.8335H69.6348ZM76.7524 77.1685C75.9321 77.1685 75.2241 76.9951 74.6284 76.6484C74.0376 76.3018 73.5811 75.8159 73.2588 75.1909C72.9414 74.561 72.7827 73.8188 72.7827 72.9644C72.7827 72.1294 72.9414 71.3945 73.2588 70.7598C73.5762 70.1201 74.0229 69.6221 74.5991 69.2656C75.1753 68.9092 75.8516 68.731 76.6279 68.731C77.1309 68.731 77.6069 68.814 78.0562 68.98C78.5103 69.1411 78.9106 69.3901 79.2573 69.7271C79.604 70.064 79.875 70.4912 80.0703 71.0088C80.2705 71.5264 80.3706 72.1416 80.3706 72.8545V73.4478H73.6763V72.1587H79.4258L78.5396 72.5396C78.5396 72.0757 78.4663 71.6704 78.3198 71.3237C78.1782 70.9771 77.9658 70.7085 77.6826 70.5181C77.4043 70.3228 77.0576 70.2251 76.6426 70.2251C76.2227 70.2251 75.8662 70.3228 75.5732 70.5181C75.2803 70.7134 75.0557 70.9771 74.8994 71.3091C74.748 71.6362 74.6724 72.0024 74.6724 72.4077V73.3013C74.6724 73.814 74.7603 74.2485 74.936 74.605C75.1118 74.9565 75.356 75.2227 75.6685 75.4033C75.9858 75.584 76.3545 75.6743 76.7744 75.6743C77.0576 75.6743 77.3115 75.6353 77.5361 75.5571C77.7656 75.4741 77.9609 75.3545 78.1221 75.1982C78.2881 75.0371 78.415 74.8418 78.5029 74.6123L80.2461 74.9492C80.1191 75.3936 79.8945 75.7817 79.5723 76.1138C79.2549 76.4458 78.8569 76.7046 78.3784 76.8901C77.9048 77.0757 77.3628 77.1685 76.7524 77.1685ZM78.1953 67.6396C77.9121 67.6396 77.6704 67.542 77.4702 67.3467C77.27 67.1465 77.1699 66.9097 77.1699 66.6362C77.1699 66.3579 77.27 66.1211 77.4702 65.9258C77.6704 65.7305 77.9121 65.6328 78.1953 65.6328C78.4736 65.6328 78.7129 65.7305 78.9131 65.9258C79.1133 66.1211 79.2134 66.3579 79.2134 66.6362C79.2134 66.9146 79.1133 67.1514 78.9131 67.3467C78.7178 67.542 78.4785 67.6396 78.1953 67.6396ZM75.002 67.6396C74.7188 67.6396 74.4771 67.542 74.2769 67.3467C74.0767 67.1465 73.9766 66.9097 73.9766 66.6362C73.9766 66.3579 74.0767 66.1211 74.2769 65.9258C74.4771 65.7305 74.7188 65.6328 75.002 65.6328C75.2852 65.6328 75.5244 65.7305 75.7197 65.9258C75.9199 66.1211 76.02 66.3579 76.02 66.6362C76.02 66.9146 75.9199 67.1514 75.7197 67.3467C75.5244 67.542 75.2852 67.6396 75.002 67.6396ZM83.4893 80.0615V68.8335H85.3569V70.1738H85.4668C85.5693 69.9785 85.7109 69.7686 85.8916 69.5439C86.0771 69.3193 86.3237 69.1289 86.6313 68.9727C86.9438 68.8115 87.3394 68.731 87.8179 68.731C88.4526 68.731 89.0215 68.8921 89.5244 69.2144C90.0322 69.5366 90.4351 70.0127 90.7329 70.6426C91.0356 71.2676 91.187 72.0317 91.187 72.9351C91.187 73.8237 91.0405 74.583 90.7476 75.2129C90.4546 75.8379 90.0542 76.3164 89.5464 76.6484C89.0386 76.9805 88.46 77.1465 87.8105 77.1465C87.3467 77.1465 86.9609 77.0684 86.6533 76.9121C86.3457 76.7559 86.0967 76.5679 85.9062 76.3481C85.7207 76.1284 85.5767 75.916 85.4741 75.7109H85.3936V80.0615H83.4893ZM87.2979 75.5864C87.7227 75.5864 88.0791 75.4717 88.3672 75.2422C88.6553 75.0127 88.8726 74.6978 89.019 74.2974C89.1655 73.8921 89.2388 73.4355 89.2388 72.9277C89.2388 72.415 89.1655 71.9609 89.019 71.5654C88.8726 71.1699 88.6553 70.8599 88.3672 70.6353C88.0791 70.4106 87.7227 70.2983 87.2979 70.2983C86.8779 70.2983 86.5239 70.4082 86.2358 70.6279C85.9478 70.8428 85.728 71.1479 85.5767 71.5435C85.4302 71.9341 85.3569 72.3955 85.3569 72.9277C85.3569 73.4551 85.4302 73.9189 85.5767 74.3193C85.728 74.7148 85.9502 75.0249 86.2432 75.2495C86.5361 75.4741 86.8877 75.5864 87.2979 75.5864ZM95.646 71.5068H98.0557C98.749 71.5068 99.3398 71.624 99.8281 71.8584C100.316 72.0879 100.69 72.4077 100.949 72.8179C101.208 73.228 101.337 73.7065 101.337 74.2534C101.337 74.7856 101.208 75.2593 100.949 75.6743C100.69 76.0845 100.316 76.4092 99.8281 76.6484C99.3398 76.8828 98.749 77 98.0557 77H94.3203V68.8335H96.2246V75.4326H98.0483C98.4731 75.4326 98.8149 75.3276 99.0737 75.1177C99.3325 74.9077 99.4619 74.6294 99.4619 74.2827C99.4619 73.9165 99.3325 73.626 99.0737 73.4111C98.8149 73.1914 98.4731 73.0815 98.0483 73.0815H95.646V71.5068ZM102.113 77V68.8335H104.018V77H102.113Z"
            fill="white" />
    </g>
    <defs>
        <clipPath id="clip0_9768_8042">
            <rect width="111" height="16" fill="white" transform="translate(0 65)" />
        </clipPath>
    </defs>
</svg>