<svg width="111" height="51" viewBox="0 0 111 51" fill="none" xmlns="http://www.w3.org/2000/svg">
    <path
        d="M13.96 6H8.84V23.04C8.84 24.4533 8.66667 25.6133 8.32 26.52C7.97333 27.4267 7.50667 28.1467 6.92 28.68C6.33333 29.1867 5.65333 29.5467 4.88 29.76C4.13333 29.9733 3.34667 30.08 2.52 30.08C2.12 30.08 1.76 30.08 1.44 30.08C1.12 30.08 0.773333 30.0533 0.4 30V26C0.64 26.0267 0.893333 26.04 1.16 26.04C1.42667 26.04 1.68 26.04 1.92 26.04C2.61333 26.04 3.2 25.8667 3.68 25.52C4.18667 25.1733 4.44 24.4533 4.44 23.36V2H18.36V30H13.96V6ZM24.9609 13.8H31.0009V17.8H24.9609V26H32.5609V30H20.5609V2H32.5609V6H24.9609V13.8ZM38.5703 12.52H40.6503C42.8636 12.52 44.5036 13.1067 45.5703 14.28C46.6636 15.4533 47.2103 17.1733 47.2103 19.44V23.08C47.2103 25.3467 46.6636 27.0667 45.5703 28.24C44.5036 29.4133 42.8636 30 40.6503 30H34.1703V2H45.8103V6H38.5703V12.52ZM40.6503 26C41.3436 26 41.877 25.8133 42.2503 25.44C42.6236 25.0667 42.8103 24.3733 42.8103 23.36V19.16C42.8103 18.1467 42.6236 17.4533 42.2503 17.08C41.877 16.7067 41.3436 16.52 40.6503 16.52H38.5703V26H40.6503ZM53.1953 13.8H59.2353V17.8H53.1953V26H60.7953V30H48.7953V2H60.7953V6H53.1953V13.8ZM60.8047 26C61.0447 26.0267 61.298 26.04 61.5647 26.04C61.8314 26.04 62.0847 26.04 62.3247 26.04C63.018 26.04 63.6047 25.8667 64.0847 25.52C64.5914 25.1733 64.8447 24.4533 64.8447 23.36V2H78.7647V26H81.0047V33.2H76.5247V30H65.2847V33.2H60.8047V26ZM69.2447 23.04C69.2447 24.2133 69.1247 25.2 68.8847 26H74.3647V6H69.2447V23.04ZM86.1953 13.8H92.2353V17.8H86.1953V26H93.7953V30H81.7953V2H93.7953V6H86.1953V13.8ZM102.045 2C104.338 2 105.991 2.53333 107.005 3.6C108.045 4.66667 108.565 6.28 108.565 8.44V9.44C108.565 10.88 108.338 12.0667 107.885 13C107.431 13.9333 106.711 14.6267 105.725 15.08C106.925 15.5333 107.765 16.28 108.245 17.32C108.751 18.3333 109.005 19.5867 109.005 21.08V23.36C109.005 25.52 108.445 27.1733 107.325 28.32C106.205 29.44 104.538 30 102.325 30H95.4047V2H102.045ZM99.8047 17.4V26H102.325C103.071 26 103.631 25.8 104.005 25.4C104.405 25 104.605 24.28 104.605 23.24V20.8C104.605 19.4933 104.378 18.6 103.925 18.12C103.498 17.64 102.778 17.4 101.765 17.4H99.8047ZM99.8047 6V13.4H101.525C102.351 13.4 102.991 13.1867 103.445 12.76C103.925 12.3333 104.165 11.56 104.165 10.44V8.88C104.165 7.86667 103.978 7.13333 103.605 6.68C103.258 6.22667 102.698 6 101.925 6H99.8047Z"
        fill="white" />
    <g clip-path="url(#clip0_263_3621)">
        <rect width="111" height="16" transform="translate(0 35)" fill="#0C374B" />
        <path
            d="M13.1592 47H11.2549L11.2549 41.8291H11.1816L7.65869 47H5.99609L5.99609 38.8335H7.90039L7.90039 44.0044H7.96631L11.4819 38.8335H13.1592V47ZM28.9839 38.8335L28.9839 47H27.0796L27.0796 40.4082H23.8423L23.8423 47H21.9307L21.9307 38.8335H28.9839ZM34.7832 47.1685C34.2607 47.1685 33.792 47.0757 33.377 46.8901C32.9619 46.6997 32.6348 46.4214 32.3955 46.0552C32.1562 45.689 32.0366 45.2373 32.0366 44.7002C32.0366 44.2412 32.1221 43.8628 32.293 43.5649C32.4688 43.2622 32.7031 43.0205 32.9961 42.8398C33.2939 42.6592 33.6284 42.5225 33.9995 42.4297C34.3706 42.3369 34.7563 42.271 35.1567 42.2319C35.6304 42.1782 36.0137 42.1318 36.3066 42.0928C36.6045 42.0537 36.8218 41.9902 36.9585 41.9023C37.1001 41.8145 37.1709 41.6777 37.1709 41.4922V41.4556C37.1709 41.187 37.1172 40.96 37.0098 40.7744C36.9023 40.5889 36.7412 40.4473 36.5264 40.3496C36.3164 40.2471 36.0552 40.1958 35.7427 40.1958C35.4302 40.1958 35.1567 40.2446 34.9224 40.3423C34.6929 40.4399 34.5049 40.5669 34.3584 40.7231C34.2119 40.8794 34.1045 41.0503 34.0361 41.2358L32.271 40.8916C32.4272 40.4082 32.6714 40.0078 33.0034 39.6904C33.3403 39.3682 33.7432 39.1289 34.2119 38.9727C34.6807 38.8115 35.1909 38.731 35.7427 38.731C36.1333 38.731 36.5239 38.7773 36.9146 38.8701C37.3101 38.9629 37.6689 39.1167 37.9912 39.3315C38.3184 39.5464 38.5796 39.8345 38.7749 40.1958C38.9751 40.5522 39.0752 40.999 39.0752 41.5361V47H37.2515V45.8721H37.1782C37.061 46.1064 36.895 46.3213 36.6802 46.5166C36.4653 46.7119 36.2017 46.8706 35.8892 46.9927C35.5767 47.1099 35.208 47.1685 34.7832 47.1685ZM35.2666 45.7549C35.6621 45.7549 36.0015 45.6792 36.2847 45.5278C36.5728 45.3716 36.7949 45.1641 36.9512 44.9053C37.1074 44.6465 37.1855 44.3657 37.1855 44.063V43.1035C37.1221 43.1523 37.0171 43.1987 36.8706 43.2427C36.729 43.2866 36.5654 43.3257 36.3799 43.3599C36.1992 43.394 36.0186 43.4233 35.8379 43.4478C35.6621 43.4722 35.5107 43.4917 35.3838 43.5063C35.1006 43.5454 34.8442 43.6113 34.6147 43.7041C34.3901 43.792 34.2119 43.9141 34.0801 44.0703C33.9482 44.2266 33.8823 44.4316 33.8823 44.6855C33.8823 44.915 33.9409 45.1104 34.0581 45.2715C34.1802 45.4326 34.3438 45.5547 34.5488 45.6377C34.7588 45.7158 34.998 45.7549 35.2666 45.7549ZM42.5674 50.0615V38.8335H44.4351V40.1738H44.5449C44.6475 39.9785 44.7891 39.7686 44.9697 39.5439C45.1553 39.3193 45.4019 39.1289 45.7095 38.9727C46.022 38.8115 46.4175 38.731 46.896 38.731C47.5308 38.731 48.0996 38.8921 48.6025 39.2144C49.1104 39.5366 49.5132 40.0127 49.811 40.6426C50.1138 41.2676 50.2651 42.0317 50.2651 42.9351C50.2651 43.8237 50.1187 44.583 49.8257 45.2129C49.5327 45.8379 49.1323 46.3164 48.6245 46.6484C48.1167 46.9805 47.5381 47.1465 46.8887 47.1465C46.4248 47.1465 46.0391 47.0684 45.7314 46.9121C45.4238 46.7559 45.1748 46.5679 44.9844 46.3481C44.7988 46.1284 44.6548 45.916 44.5522 45.7109H44.4717V50.0615H42.5674ZM46.376 45.5864C46.8008 45.5864 47.1572 45.4717 47.4453 45.2422C47.7334 45.0127 47.9507 44.6978 48.0972 44.2974C48.2437 43.8921 48.3169 43.4355 48.3169 42.9277C48.3169 42.415 48.2437 41.9609 48.0972 41.5654C47.9507 41.1699 47.7334 40.8599 47.4453 40.6353C47.1572 40.4106 46.8008 40.2983 46.376 40.2983C45.9561 40.2983 45.6021 40.4082 45.314 40.6279C45.0259 40.8428 44.8062 41.1479 44.6548 41.5435C44.5083 41.9341 44.4351 42.3955 44.4351 42.9277C44.4351 43.4551 44.5083 43.9189 44.6548 44.3193C44.8062 44.7148 45.0283 45.0249 45.3213 45.2495C45.6143 45.4741 45.9658 45.5864 46.376 45.5864ZM55.1709 47V40.3862H52.5488V38.8335H59.6826V40.3862H57.0679V47H55.1709ZM68.2432 42.1294V43.7041L63.8633 43.7041V42.1294L68.2432 42.1294ZM64.376 38.8335V47H62.4717V38.8335H64.376ZM69.6348 38.8335V47H67.7305V38.8335L69.6348 38.8335ZM76.7524 47.1685C75.9321 47.1685 75.2241 46.9951 74.6284 46.6484C74.0376 46.3018 73.5811 45.8159 73.2588 45.1909C72.9414 44.561 72.7827 43.8188 72.7827 42.9644C72.7827 42.1294 72.9414 41.3945 73.2588 40.7598C73.5762 40.1201 74.0229 39.6221 74.5991 39.2656C75.1753 38.9092 75.8516 38.731 76.6279 38.731C77.1309 38.731 77.6069 38.814 78.0562 38.98C78.5103 39.1411 78.9106 39.3901 79.2573 39.7271C79.604 40.064 79.875 40.4912 80.0703 41.0088C80.2705 41.5264 80.3706 42.1416 80.3706 42.8545V43.4478H73.6763V42.1587H79.4258L78.5396 42.5396C78.5396 42.0757 78.4663 41.6704 78.3198 41.3237C78.1782 40.9771 77.9658 40.7085 77.6826 40.5181C77.4043 40.3228 77.0576 40.2251 76.6426 40.2251C76.2227 40.2251 75.8662 40.3228 75.5732 40.5181C75.2803 40.7134 75.0557 40.9771 74.8994 41.3091C74.748 41.6362 74.6724 42.0024 74.6724 42.4077V43.3013C74.6724 43.814 74.7603 44.2485 74.936 44.605C75.1118 44.9565 75.356 45.2227 75.6685 45.4033C75.9858 45.584 76.3545 45.6743 76.7744 45.6743C77.0576 45.6743 77.3115 45.6353 77.5361 45.5571C77.7656 45.4741 77.9609 45.3545 78.1221 45.1982C78.2881 45.0371 78.415 44.8418 78.5029 44.6123L80.2461 44.9492C80.1191 45.3936 79.8945 45.7817 79.5723 46.1138C79.2549 46.4458 78.8569 46.7046 78.3784 46.8901C77.9048 47.0757 77.3628 47.1685 76.7524 47.1685ZM78.1953 37.6396C77.9121 37.6396 77.6704 37.542 77.4702 37.3467C77.27 37.1465 77.1699 36.9097 77.1699 36.6362C77.1699 36.3579 77.27 36.1211 77.4702 35.9258C77.6704 35.7305 77.9121 35.6328 78.1953 35.6328C78.4736 35.6328 78.7129 35.7305 78.9131 35.9258C79.1133 36.1211 79.2134 36.3579 79.2134 36.6362C79.2134 36.9146 79.1133 37.1514 78.9131 37.3467C78.7178 37.542 78.4785 37.6396 78.1953 37.6396ZM75.002 37.6396C74.7188 37.6396 74.4771 37.542 74.2769 37.3467C74.0767 37.1465 73.9766 36.9097 73.9766 36.6362C73.9766 36.3579 74.0767 36.1211 74.2769 35.9258C74.4771 35.7305 74.7188 35.6328 75.002 35.6328C75.2852 35.6328 75.5244 35.7305 75.7197 35.9258C75.9199 36.1211 76.02 36.3579 76.02 36.6362C76.02 36.9146 75.9199 37.1514 75.7197 37.3467C75.5244 37.542 75.2852 37.6396 75.002 37.6396ZM83.4893 50.0615V38.8335H85.3569V40.1738H85.4668C85.5693 39.9785 85.7109 39.7686 85.8916 39.5439C86.0771 39.3193 86.3237 39.1289 86.6313 38.9727C86.9438 38.8115 87.3394 38.731 87.8179 38.731C88.4526 38.731 89.0215 38.8921 89.5244 39.2144C90.0322 39.5366 90.4351 40.0127 90.7329 40.6426C91.0356 41.2676 91.187 42.0317 91.187 42.9351C91.187 43.8237 91.0405 44.583 90.7476 45.2129C90.4546 45.8379 90.0542 46.3164 89.5464 46.6484C89.0386 46.9805 88.46 47.1465 87.8105 47.1465C87.3467 47.1465 86.9609 47.0684 86.6533 46.9121C86.3457 46.7559 86.0967 46.5679 85.9062 46.3481C85.7207 46.1284 85.5767 45.916 85.4741 45.7109H85.3936V50.0615H83.4893ZM87.2979 45.5864C87.7227 45.5864 88.0791 45.4717 88.3672 45.2422C88.6553 45.0127 88.8726 44.6978 89.019 44.2974C89.1655 43.8921 89.2388 43.4355 89.2388 42.9277C89.2388 42.415 89.1655 41.9609 89.019 41.5654C88.8726 41.1699 88.6553 40.8599 88.3672 40.6353C88.0791 40.4106 87.7227 40.2983 87.2979 40.2983C86.8779 40.2983 86.5239 40.4082 86.2358 40.6279C85.9478 40.8428 85.728 41.1479 85.5767 41.5435C85.4302 41.9341 85.3569 42.3955 85.3569 42.9277C85.3569 43.4551 85.4302 43.9189 85.5767 44.3193C85.728 44.7148 85.9502 45.0249 86.2432 45.2495C86.5361 45.4741 86.8877 45.5864 87.2979 45.5864ZM95.646 41.5068H98.0557C98.749 41.5068 99.3398 41.624 99.8281 41.8584C100.316 42.0879 100.69 42.4077 100.949 42.8179C101.208 43.228 101.337 43.7065 101.337 44.2534C101.337 44.7856 101.208 45.2593 100.949 45.6743C100.69 46.0845 100.316 46.4092 99.8281 46.6484C99.3398 46.8828 98.749 47 98.0557 47H94.3203V38.8335H96.2246V45.4326H98.0483C98.4731 45.4326 98.8149 45.3276 99.0737 45.1177C99.3325 44.9077 99.4619 44.6294 99.4619 44.2827C99.4619 43.9165 99.3325 43.626 99.0737 43.4111C98.8149 43.1914 98.4731 43.0815 98.0483 43.0815H95.646V41.5068ZM102.113 47V38.8335H104.018V47H102.113Z"
            fill="white" />
    </g>
    <defs>
        <clipPath id="clip0_263_3621">
            <rect width="111" height="16" fill="white" transform="translate(0 35)" />
        </clipPath>
    </defs>
</svg>